<?xml version="1.0" standalone="no"?>
<!DOCTYPE svg PUBLIC "-//W3C//DTD SVG 20010904//EN"
 "http://www.w3.org/TR/2001/REC-SVG-20010904/DTD/svg10.dtd">
<svg version="1.0" xmlns="http://www.w3.org/2000/svg"
 width="924.000000pt" height="924.000000pt" viewBox="0 0 924.000000 924.000000"
 preserveAspectRatio="xMidYMid meet">
<metadata>
Created by potrace 1.14, written by Peter Selinger 2001-2017
</metadata>
<g transform="translate(0.000000,924.000000) scale(0.100000,-0.100000)"
fill="#000000" stroke="none">
<path d="M23 8618 c4 -46 10 -138 13 -206 l7 -122 449 -713 449 -712 65 -203
c37 -112 65 -205 63 -207 -2 -1 -43 44 -92 101 -85 101 -89 107 -158 281 -38
98 -74 182 -79 187 -12 12 -12 -1 0 -228 15 -270 36 -328 292 -811 111 -209
212 -396 224 -416 17 -27 139 -112 545 -379 288 -189 530 -348 537 -355 7 -6
81 -252 165 -546 l152 -534 205 -137 205 -136 90 -1 90 -2 156 -187 c86 -103
178 -213 204 -245 l48 -58 17 -437 17 -437 -38 -355 c-22 -195 -39 -363 -39
-372 0 -19 986 -828 1010 -828 24 0 1010 809 1010 828 0 9 -17 179 -39 377
-36 340 -38 370 -31 540 5 99 11 279 15 400 4 121 10 237 14 258 5 30 47 86
206 277 l200 240 90 1 90 1 205 136 205 137 152 534 c84 294 158 540 165 546
7 7 249 167 537 355 406 267 528 352 545 379 12 20 113 207 224 416 256 483
277 541 292 811 12 227 12 240 0 228 -5 -5 -41 -89 -79 -187 -69 -174 -73
-180 -158 -281 -49 -57 -89 -101 -91 -97 -1 4 27 97 62 207 l65 199 449 712
449 713 7 122 c3 68 9 160 13 206 3 46 2 82 -3 82 -5 0 -38 -79 -74 -176 l-65
-177 -141 -192 -140 -192 -18 211 c-21 265 -27 309 -37 299 -4 -4 -44 -142
-88 -305 l-80 -297 -83 -120 -83 -120 -80 -1 -80 0 -169 490 c-94 270 -173
487 -177 483 -6 -7 5 -476 25 -1063 3 -91 6 -219 7 -285 l0 -120 -121 -495
c-141 -572 -94 -463 -403 -934 l-202 -310 -579 -308 c-319 -169 -581 -307
-582 -305 -2 1 274 200 612 442 l615 439 115 209 116 208 -27 187 c-15 103
-31 191 -35 196 -8 8 -18 -22 -75 -223 -22 -76 -46 -125 -131 -266 l-104 -172
-602 -410 c-332 -225 -609 -414 -617 -418 -8 -4 5 27 29 69 l42 78 -32 164
c-18 90 -36 164 -40 164 -4 0 -30 -59 -56 -131 l-49 -130 -99 -70 c-54 -38
-101 -68 -104 -65 -2 3 5 191 16 418 11 227 18 415 16 418 -3 2 -8 -1 -12 -7
-4 -6 -108 -286 -231 -623 l-225 -611 -210 -177 -211 -177 -125 0 -125 0 -211
177 -210 177 -225 611 c-123 337 -227 617 -231 623 -4 6 -9 9 -12 7 -2 -3 5
-191 16 -418 11 -227 18 -415 16 -418 -3 -3 -50 27 -104 65 l-99 70 -49 130
c-26 72 -52 131 -56 131 -4 0 -22 -74 -40 -164 l-32 -164 42 -78 c24 -42 37
-73 29 -69 -8 5 -285 192 -617 418 l-602 409 -104 173 c-85 141 -109 190 -131
266 -57 201 -67 231 -75 223 -4 -5 -20 -93 -35 -196 l-27 -187 116 -208 115
-209 615 -439 c338 -242 614 -441 612 -442 -2 -2 -263 136 -582 305 l-579 309
-193 294 c-106 162 -214 327 -239 368 -46 73 -49 81 -173 583 l-125 509 21
722 c12 397 19 725 15 730 -4 4 -83 -213 -177 -483 l-169 -490 -80 0 -80 1
-83 120 -83 120 -80 297 c-44 163 -84 301 -88 305 -10 10 -16 -34 -37 -299
l-18 -211 -140 192 -141 192 -65 177 c-36 97 -69 176 -74 176 -5 0 -6 -36 -3
-82z m3627 -4256 c0 -4 7 -50 15 -102 20 -131 20 -130 -14 -130 -27 0 -42 17
-151 167 -108 149 -119 169 -104 180 14 10 36 2 135 -48 66 -32 119 -62 119
-67z m2204 95 c-4 -7 -59 -83 -122 -169 -102 -142 -117 -158 -143 -158 -34 0
-34 -1 -14 130 8 52 15 98 15 102 0 4 53 34 118 67 89 45 121 57 135 49 10 -5
15 -14 11 -21z"/>
</g>
</svg>
